<svg xmlns="http://www.w3.org/2000/svg" width="608.488" height="550" viewBox="0 0 608.488 550">
  <g id="undraw_invest_88iw" transform="translate(-318.264 -50.259)">
    <ellipse id="Ellipse_8" data-name="Ellipse 8" cx="66.75" cy="95" rx="66.75" ry="95" transform="translate(318.263 153.957)" fill="#3f3d56"/>
    <ellipse id="Ellipse_9" data-name="Ellipse 9" cx="66.75" cy="95" rx="66.75" ry="95" transform="translate(318.263 153.957)" opacity="0.1"/>
    <ellipse id="Ellipse_10" data-name="Ellipse 10" cx="66.75" cy="95" rx="66.75" ry="95" transform="translate(326.283 153.957)" fill="#3f3d56"/>
    <ellipse id="Ellipse_11" data-name="Ellipse 11" cx="57.25" cy="81.479" rx="57.25" ry="81.479" transform="translate(326.595 167.837)" opacity="0.1"/>
    <path id="Path_14" data-name="Path 14" d="M709.754,715.748v-9.565c-4.835-.094-9.837-1.8-12.754-4.167l2-6.345a20.388,20.388,0,0,0,12,4.072c5.919,0,9.92-3.883,9.92-9.28,0-5.209-3.251-8.428-9.42-11.269-8.5-3.788-13.755-8.144-13.755-16.383,0-7.86,4.918-13.826,12.588-15.247V638h5.168v9.186a20.282,20.282,0,0,1,10.837,3.314l-2.084,6.25a18.421,18.421,0,0,0-10.5-3.22c-6.419,0-8.836,4.356-8.836,8.144,0,4.924,3.084,7.386,10.337,10.8,8.586,3.977,12.921,8.9,12.921,17.33,0,7.481-4.585,14.489-13.171,16.1v9.849Z" transform="translate(-327.379 -426.271)" fill="#8a05be"/>
    <rect id="Rectangle_5" data-name="Rectangle 5" width="458" height="568.4" transform="translate(468.751 50.259)" fill="#f2f2f2"/>
    <rect id="Rectangle_7" data-name="Rectangle 7" width="2" height="6" transform="translate(603.401 496.368)" fill="#e6e6e6"/>
    <rect id="Rectangle_9" data-name="Rectangle 9" width="2" height="6" transform="translate(758.668 409.157)" fill="#e6e6e6"/>
    <path id="Path_22" data-name="Path 22" d="M591,548.937l83.024-85.861,37.863,39.156L831.861,378.16l77.55,80.2L1049,314V548.937Z" transform="translate(-122.249 70.146)" fill="#8a05be"/>
    <circle id="Ellipse_12" data-name="Ellipse 12" cx="13" cy="13" r="13" transform="translate(591.02 459.483)" fill="#3f3d56"/>
    <circle id="Ellipse_13" data-name="Ellipse 13" cx="13" cy="13" r="13" transform="translate(734.902 411.982)" fill="#3f3d56"/>
    <circle id="Ellipse_14" data-name="Ellipse 14" cx="13" cy="13" r="13" transform="translate(888.751 349.589)" fill="#3f3d56"/>
    <path id="Path_24" data-name="Path 24" d="M1249,242c-5.817,1.688-13.621,2.991-19.4,2.53l7.538,5.007L882.405,512.2l1.189,1.607L1238.33,251.144l2.591,8.673C1242.17,254.157,1245.69,247.073,1249,242Z" transform="translate(-392.326 -133.657)" fill="#3f3d56"/>
  </g>
</svg>
